PathFileType	4	(X/Y/Z)	/Users/niels/Desktop/University/Third Semester/Perception and Action/Exam/Gymnastics Motion Tracking/Code for Gym Tracking/Analyzed Data/Webcam_Backflip/id6_5_pure_Sports2D/id6_5_pure_Sports2D_px_person00.trc
DataRate	CameraRate	NumFrames	NumMarkers	Units	OrigDataRate	OrigDataStartFrame	OrigNumFrames
29.81132075471698	29.81132075471698	12	22	m	29.81132075471698	19	159
Frame#	Time	Hip			RHip			RKnee			RAnkle			RBigToe			RSmallToe			RHeel			LHip			LKnee			LAnkle			LBigToe			LSmallToe			LHeel			Neck			Head			Nose			RShoulder			RElbow			RWrist			LShoulder			LElbow			LWrist		
		X1	Y1	Z1	X2	Y2	Z2	X3	Y3	Z3	X4	Y4	Z4	X5	Y5	Z5	X6	Y6	Z6	X7	Y7	Z7	X8	Y8	Z8	X9	Y9	Z9	X10	Y10	Z10	X11	Y11	Z11	X12	Y12	Z12	X13	Y13	Z13	X14	Y14	Z14	X15	Y15	Z15	X16	Y16	Z16	X17	Y17	Z17	X18	Y18	Z18	X19	Y19	Z19	X20	Y20	Z20	X21	Y21	Z21	X22	Y22	Z22
19	0.6373417721518987	0.9491453348069427	-0.577495597663296	0.0	0.9449523836143334	-0.5787053265855099	0.0	1.0062446612749856	-0.6589013122873039	0.0	0.9665779927682757	-0.7502275000014025	0.0	1.0037646190573177	-0.7643433569765367	0.0	0.9972134443788098	-0.7718490911184102	0.0	0.9566003218183577	-0.7598879253521066	0.0	0.9510878603092732	-0.5753791832266918	0.0	1.0028829318118835	-0.65687701813972	0.0	0.967994129174676	-0.7470629014856318	0.0	1.0030339939880755	-0.7648432124638329	0.0	0.9976652440808543	-0.7643178083043233	0.0	0.9549694755706242	-0.7583956961153705	0.0	1.0029756867721575	-0.4627497220588885	0.0	1.0450765910562116	-0.40317163684097906	0.0	1.0462739163689472	-0.4338779183287997	0.0	1.0015020884042138	-0.4698950681965761	0.0	0.9347888962004945	-0.4782801783467675	0.0	0.8740236494140435	-0.4820614284543392	0.0	0.9950152977857519	-0.46755064820317477	0.0	0.9373384591575985	-0.4837011346544874	0.0	0.8817780054588231	-0.5032977958569734	0.0
20	0.6708860759493671	0.9468808425328112	-0.586211820782067	0.0	0.9430941340134874	-0.5872674731717987	0.0	1.0077231369393334	-0.6638645053574187	0.0	0.9646837980382083	-0.7531193338519216	0.0	0.9983307171502881	-0.762318393548507	0.0	0.9957179342355715	-0.7750742017336497	0.0	0.9564167505595541	-0.7561352610322946	0.0	0.9494296360104155	-0.5840780099150108	0.0	1.0051301621441333	-0.6619335836205867	0.0	0.9685751012325912	-0.749548284924017	0.0	1.002341974992927	-0.7684618844235878	0.0	0.9972292754575339	-0.7674402026336167	0.0	0.9546711655343809	-0.7609286773716145	0.0	1.0032793319476316	-0.47307700852269635	0.0	1.04172672316452	-0.41249091266039534	0.0	1.0447069618236586	-0.44219501449488996	0.0	1.0000178749603563	-0.48185053217983936	0.0	0.9397991690996008	-0.50370015898027	0.0	0.8834624687409549	-0.5204712679745989	0.0	0.9955747165404627	-0.4794186926719	0.0	0.9402993871369851	-0.5037792202766583	0.0	0.8907156126752551	-0.5298561273153503	0.0
21	0.7044303797468354	0.9453303399163657	-0.5978332479000746	0.0	0.9422394341577435	-0.5987762158191128	0.0	1.0086562606531106	-0.6727502839199849	0.0	0.9618162807156176	-0.760139368106499	0.0	0.9905991288478919	-0.762667155893059	0.0	0.9931580319456271	-0.7822817674158231	0.0	0.9561179791968956	-0.7541378344034247	0.0	0.9480400649525623	-0.5957686413389842	0.0	1.0066788176477663	-0.6709786805983178	0.0	0.9689641994802658	-0.7564679075882877	0.0	1.0012965490456949	-0.7763601280276589	0.0	0.9961796357107158	-0.77444864256993	0.0	0.9542536882713295	-0.7676014571091384	0.0	1.0023062086088785	-0.4848912130416389	0.0	1.0363581249516567	-0.4232929132771218	0.0	1.0415277920237276	-0.4521102205771425	0.0	0.9979241741135044	-0.4956576301080104	0.0	0.9487107853739053	-0.5314282623270282	0.0	0.9019706080498235	-0.5609088457572128	0.0	0.9948094877065251	-0.49298228918967874	0.0	0.9465434798183555	-0.5269922395801852	0.0	0.9076168542325004	-0.5602690752530024	0.0
22	0.7379746835443037	0.944477329527704	-0.6116153636206558	0.0	0.9422229377639313	-0.6125841113920459	0.0	1.0090025936354219	-0.6853638687618353	0.0	0.958913118576914	-0.7713751989646087	0.0	0.9825007144217744	-0.7673069106905637	0.0	0.9900353021984226	-0.7933211089242929	0.0	0.9558526843285629	-0.7563855873833586	0.0	0.9470710077472342	-0.609808801421893	0.0	1.0074634755289869	-0.6838161900488351	0.0	0.9691515381695566	-0.7679282861692173	0.0	1.000404227494478	-0.7882975718829862	0.0	0.9947006113567083	-0.7853015832245588	0.0	0.9539009739044669	-0.7784274045384085	0.0	0.9996127874086875	-0.4970850082583681	0.0	1.0287297315563015	-0.4345987339043352	0.0	1.0364215025323595	-0.4629003936099705	0.0	0.9950886645366256	-0.5099391669875606	0.0	0.9618902396596393	-0.5573952277020999	0.0	0.9304302119250217	-0.5967365133081931	0.0	0.9922004786120804	-0.5069686487442845	0.0	0.9565068932410314	-0.549872861913509	0.0	0.933136013321026	-0.5891758456849575	0.0
23	0.7715189873417722	0.944214871761351	-0.6262696278755182	0.0	0.9427438874153786	-0.6274062386636566	0.0	1.0085439669435372	-0.7007786830381443	0.0	0.9575000440531909	-0.7860723227227026	0.0	0.9771801025690776	-0.778791680306763	0.0	0.9870524234931545	-0.8072990399993029	0.0	0.9557528662045486	-0.7664336886037267	0.0	0.9465452156669123	-0.6249085432747178	0.0	1.0071741849583955	-0.6994678226360919	0.0	0.9690876325742498	-0.783003185024901	0.0	0.9996830504615514	-0.8031129773864982	0.0	0.9928629161606194	-0.7991518207527076	0.0	0.9535897910513393	-0.7925987674941221	0.0	0.9949533695533095	-0.5085726038136714	0.0	1.0188731263674577	-0.445154703883327	0.0	1.0293146999803482	-0.47349991914839235	0.0	0.9912835765894739	-0.5231087034124916	0.0	0.9784521907612865	-0.5767897685273308	0.0	0.9670274603946947	-0.6203331680149354	0.0	0.9876055510889454	-0.5199696846320756	0.0	0.9699714174030261	-0.568097721302538	0.0	0.9656188105853477	-0.6095133323745303	0.0
24	0.8050632911392405	0.9445972954733141	-0.6399018755962064	0.0	0.9436834760051055	-0.6412700806844331	0.0	1.0071105188163367	-0.7171341216474323	0.0	0.9583830784544068	-0.802417175370288	0.0	0.9765968718006988	-0.7972426525646948	0.0	0.9847461618289485	-0.8225007671120773	0.0	0.9557906435859047	-0.7851369238694744	0.0	0.9465702158853965	-0.6390432042180588	0.0	1.005546935780988	-0.715979743546691	0.0	0.9687081237437952	-0.799667862466002	0.0	0.998807638153544	-0.8188118493585014	0.0	0.9906462834705961	-0.8142255867148467	0.0	0.953132684021939	-0.8084358963656213	0.0	0.9883727229754012	-0.5182303586977703	0.0	1.0070370920754799	-0.4535124396832446	0.0	1.020360120366215	-0.4824453075543314	0.0	0.9863075388157997	-0.533508982315523	0.0	0.995870652661137	-0.5851917571118649	0.0	1.0063275830330498	-0.6250689120745335	0.0	0.9812877107003238	-0.5304507831036295	0.0	0.985467516149775	-0.5773532760841988	0.0	1.0002355148925997	-0.6145223585282981	0.0
25	0.8386075949367088	0.9459091344729119	-0.6501083289549652	0.0	0.9452551505927416	-0.6516707147090617	0.0	1.004876867742466	-0.7317181736168837	0.0	0.9607817725293879	-0.8176812080154146	0.0	0.9796180323260173	-0.8183085850045865	0.0	0.9832123255749526	-0.8365347130186901	0.0	0.955822758667755	-0.8078743423549739	0.0	0.9474493729665665	-0.6496195248534954	0.0	1.0027903499797524	-0.7305677726705255	0.0	0.9680462923051847	-0.8151181877072874	0.0	0.9975091497618542	-0.8329786955760413	0.0	0.9881761933366177	-0.8280748563858152	0.0	0.9524627622162013	-0.823465967815678	0.0	0.9801470466488739	-0.5246931686961012	0.0	0.9935615838881523	-0.4582305729808294	0.0	1.009778096943292	-0.48800143469434076	0.0	0.9800516311844973	-0.5394572142236336	0.0	1.0104290244511143	-0.5799448179160924	0.0	1.0403134348424194	-0.60790514247806	0.0	0.9735490123097772	-0.5367204122818886	0.0	0.9997563978263507	-0.5744518151651066	0.0	1.029299332647128	-0.600245889110934	0.0
26	0.8721518987341772	0.9484067509173858	-0.6544214453821291	0.0	0.9477883381586701	-0.6560677482761171	0.0	1.0025652075532425	-0.7413895060438593	0.0	0.9634860629322884	-0.8287017699069699	0.0	0.9835247131452985	-0.8358603821354403	0.0	0.9821861479857283	-0.8467155982986033	0.0	0.9559381250857847	-0.8274739548660776	0.0	0.9494727582801533	-0.6540273625046275	0.0	0.9997657556352373	-0.740060508574428	0.0	0.9674003091073091	-0.8262402727329086	0.0	0.9958912598482088	-0.8431584344730347	0.0	0.9859795987428158	-0.8380710736482875	0.0	0.9518805883068756	-0.8347307109156186	0.0	0.9705485757178048	-0.5264229398136965	0.0	0.9786634206040339	-0.45806409051367497	0.0	0.9975820163321177	-0.48844140283694903	0.0	0.9724018788604109	-0.5394429399280493	0.0	1.018501608271398	-0.5611443553705457	0.0	1.0614683416351802	-0.5710059719724067	0.0	0.9643659639226297	-0.5371956792331095	0.0	1.0085599198097859	-0.5585818556807497	0.0	1.044813982601992	-0.567509790012046	0.0
27	0.9056962025316455	0.9520073879023843	-0.650953691723469	0.0	0.9513647148156924	-0.6525768169246352	0.0	1.0014499501405547	-0.7431278460655367	0.0	0.9662961301028697	-0.832428521912985	0.0	0.9865860152768077	-0.8453742149758684	0.0	0.9815197489353489	-0.8504938209635827	0.0	0.9567289056174035	-0.8383536710783811	0.0	0.9526090293514944	-0.6503274766290223	0.0	0.9978434035424854	-0.7413942391160365	0.0	0.9674820837499171	-0.830038058783278	0.0	0.9945881692877202	-0.8469998987496157	0.0	0.9849344569949431	-0.8417648783886555	0.0	0.952119351823905	-0.8393070553545539	0.0	0.9596638722860644	-0.5221454561931234	0.0	0.9622324010099014	-0.4521688768605731	0.0	0.9834712773894829	-0.48247013022860585	0.0	0.9631341138337848	-0.5325776282747826	0.0	1.017934172406237	-0.5317137563772106	0.0	1.0658793268306248	-0.5211669222072485	0.0	0.9534688735504415	-0.5309083815158655	0.0	1.008753688417814	-0.5318816039995581	0.0	1.0425851446496197	-0.5218734764965148	0.0
28	0.9392405063291138	0.9561715325193735	-0.6389670553087111	0.0	0.9556033007105156	-0.6405705685988612	0.0	1.0031186364186966	-0.7345214208432121	0.0	0.9701772055424173	-0.8262829168162559	0.0	0.9890408237275917	-0.8442604836442651	0.0	0.9818586527554825	-0.8456603247928965	0.0	0.9593040998531823	-0.8372573494284824	0.0	0.9563219199735504	-0.6378284719024395	0.0	0.9985662761488803	-0.7321000865370365	0.0	0.9694786683167256	-0.8239389319697253	0.0	0.9947335829985335	-0.8422508458813608	0.0	0.9860030718947788	-0.8369950902605732	0.0	0.954357216464395	-0.8346733280462779	0.0	0.9474353630775336	-0.5114054498760181	0.0	0.9438720158521585	-0.4404954204699689	0.0	0.9670573101471946	-0.4698049150609749	0.0	0.9519875623704762	-0.5190738591952193	0.0	1.0087841361411802	-0.4964908804049811	0.0	1.05444158223621	-0.4672361580953431	0.0	0.9407608037356677	-0.5179176744428292	0.0	0.9999953922350635	-0.4986489650679572	0.0	1.0251422255649958	-0.47115764783916453	0.0
29	0.9727848101265822	0.9600182153064608	-0.6192647412964493	0.0	0.9597368733259353	-0.6210279063935159	0.0	1.0089020512121434	-0.7140993509588378	0.0	0.9767909240552738	-0.8084072688477826	0.0	0.992908196251605	-0.83099297730125	0.0	0.9850094780625459	-0.8303914425567919	0.0	0.9652143122509912	-0.8225212516860821	0.0	0.9597097092620738	-0.6174797818032641	0.0	1.003128363380008	-0.7107497708893856	0.0	0.974915393186557	-0.8060766779519987	0.0	0.9978331747503277	-0.8268934155995453	0.0	0.990221778438257	-0.8219787123129405	0.0	0.9601886391824652	-0.8189193419085459	0.0	0.9338524717029831	-0.4949722790638226	0.0	0.9232474805705377	-0.42417386791621264	0.0	0.9482636388446668	-0.4515843652784093	0.0	0.9388853797370021	-0.5004388840488811	0.0	0.9932198806536093	-0.46076847459806025	0.0	1.0320083960995257	-0.41713319398328524	0.0	0.9266396776389492	-0.4994808457011811	0.0	0.9845196432091446	-0.4638002547588039	0.0	1.0006681816343719	-0.42252993126918115	0.0
30	1.0063291139240507	0.9627094061508268	-0.5942477599399988	0.0	0.9629850517483184	-0.5964541315019299	0.0	1.0189458651774421	-0.6815206277127963	0.0	0.9877964262210737	-0.7779698052021428	0.0	1.0009307738099933	-0.8046734733444904	0.0	0.9933497882312505	-0.8033330513711765	0.0	0.9761146916501675	-0.793810144295043	0.0	0.962003709243705	-0.5918615755929556	0.0	1.0116492335654548	-0.6772529379146127	0.0	0.9851814773357024	-0.7756076469425591	0.0	1.0055233276583024	-0.7994304423097278	0.0	0.9988540750601016	-0.7954127390350791	0.0	0.9712513034669275	-0.7909802688591769	0.0	0.9191556848077201	-0.4748581905544097	0.0	0.9005597454966227	-0.40552580352181805	0.0	0.9276518653689196	-0.43020542433280373	0.0	0.924186757396285	-0.4791602014518803	0.0	0.9747285761246651	-0.4290039862322123	0.0	1.0053828822900692	-0.3761037951370184	0.0	0.9119693333004528	-0.47792834969619724	0.0	0.9659467107926928	-0.4316723548078916	0.0	0.9776784543976313	-0.381127159742904	0.0
